PathFileType	4	(X/Y/Z)	C:\Data Capture\Research\archery\Archery pilot8.trc
DataRate	CameraRate	NumFrames	NumMarkers	Units	OrigDataRate	OrigDataStartFrame	OrigNumFrames
100.00	100.00	       116	3	mm	100.00	401	       800
Frame#	Time	Marker 1			Marker 2			Marker 3			
		X1	Y1	Z1	X2	Y2	Z2	X3	Y3	Z3	

401	4.000	63.25930	462.91687	1317.03101	148.12735	462.43631	1263.54272	76.82207	477.82242	1176.88440	
402	4.010	63.24744	460.46231	1316.42786	148.11932	456.82129	1262.79138	77.16084	475.79349	1176.32996	
403	4.020	62.99891	458.74036	1315.76123	147.73595	453.03745	1261.99243	77.15425	474.32437	1175.70190	
404	4.030	62.61993	457.59998	1315.06567	147.19220	450.84854	1261.20764	76.92840	473.50366	1175.06384	
405	4.040	62.20450	456.87802	1314.36060	146.63464	449.91183	1260.44800	76.58376	473.31793	1174.45361	
406	4.050	61.82306	456.44785	1313.65625	146.14589	449.85532	1259.69873	76.19428	473.64819	1173.87793	
407	4.060	61.51144	456.23737	1312.95813	145.75897	450.33972	1258.94739	75.81385	474.30020	1173.32007	
408	4.070	61.27052	456.21774	1312.27197	145.47214	451.09653	1258.20447	75.48059	475.05801	1172.75525	
409	4.080	61.07734	456.37906	1311.60559	145.26285	451.93939	1257.50281	75.21827	475.73740	1172.16516	
410	4.090	60.90142	456.70560	1310.97180	145.10422	452.75348	1256.88367	75.04048	476.21848	1171.55078	
411	4.100	60.71967	457.15884	1310.38831	144.97697	453.47479	1256.38110	74.95423	476.45657	1170.93372	
412	4.110	60.52518	457.67426	1309.87354	144.86989	454.07123	1256.01270	74.95875	476.47421	1170.34741	
413	4.120	60.32625	458.17471	1309.44104	144.77490	454.52789	1255.77344	75.04086	476.33725	1169.82422	
414	4.130	60.13760	458.59174	1309.09387	144.68582	454.84018	1255.63684	75.17287	476.12595	1169.38574	
415	4.140	59.97247	458.88354	1308.82483	144.59906	455.01630	1255.56372	75.31825	475.90964	1169.03992	
416	4.150	59.83935	459.04138	1308.61914	144.51282	455.08142	1255.51440	75.44163	475.72968	1168.78235	
417	4.160	59.74197	459.08472	1308.46143	144.42731	455.07458	1255.45984	75.51698	475.59570	1168.59924	
418	4.170	59.67889	459.04987	1308.34106	144.34502	455.03848	1255.38879	75.53230	475.49564	1168.47510	
419	4.180	59.64151	458.97415	1308.25562	144.26915	455.00803	1255.31006	75.49066	475.41220	1168.40002	
420	4.190	59.61336	458.87952	1308.21045	144.20268	455.00085	1255.24951	75.40882	475.33597	1168.37476	
421	4.200	59.57273	458.76581	1308.21484	144.14803	455.01416	1255.24072	75.31396	475.26968	1168.40906	
422	4.210	59.49742	458.61829	1308.27661	144.10535	455.03082	1255.31360	75.23740	475.22263	1168.51672	
423	4.220	59.37017	458.42386	1308.39844	144.07077	455.03177	1255.48755	75.20493	475.20050	1168.70679	
424	4.230	59.18526	458.18674	1308.57690	144.03769	455.00711	1255.76807	75.22845	475.19864	1168.97546	
425	4.240	58.95321	457.93585	1308.80359	144.00119	454.96204	1256.14673	75.30370	475.20251	1169.30432	
426	4.250	58.69901	457.71771	1309.06665	143.96246	454.91623	1256.60303	75.41436	475.19113	1169.66455	
427	4.260	58.45397	457.57703	1309.35205	143.92842	454.89456	1257.10547	75.53836	475.14191	1170.02661	
428	4.270	58.24585	457.53757	1309.64673	143.90657	454.91638	1257.61694	75.65282	475.03796	1170.36572	
429	4.280	58.09203	457.59396	1309.93860	143.90007	454.98950	1258.09863	75.73794	474.87646	1170.66492	
430	4.290	57.99817	457.71442	1310.21741	143.90707	455.10818	1258.51978	75.78180	474.67154	1170.91516	
431	4.300	57.95967	457.85062	1310.47632	143.92291	455.25412	1258.86597	75.78397	474.44913	1171.11780	
432	4.310	57.96419	457.95291	1310.71350	143.94351	455.40189	1259.14026	75.75410	474.23660	1171.28320	
433	4.320	57.99632	457.98587	1310.93079	143.96735	455.52640	1259.35706	75.70718	474.05356	1171.42566	
434	4.330	58.04321	457.93820	1311.13025	143.99442	455.61011	1259.53357	75.65832	473.90738	1171.55701	
435	4.340	58.09644	457.82315	1311.31299	144.02528	455.64810	1259.68384	75.61790	473.79169	1171.68384	
436	4.350	58.15134	457.67221	1311.47925	144.06088	455.64816	1259.81567	75.59059	473.68692	1171.80835	
437	4.360	58.20646	457.52585	1311.62866	144.10094	455.62628	1259.93250	75.57863	473.56458	1171.92859	
438	4.370	58.26142	457.42242	1311.76074	144.14235	455.60077	1260.03479	75.58516	473.39594	1172.04114	
439	4.380	58.31482	457.38824	1311.87549	144.18068	455.58798	1260.12219	75.61515	473.16183	1172.14404	
440	4.390	58.36489	457.43372	1311.97400	144.21303	455.60046	1260.19446	75.67239	472.86066	1172.23718	
441	4.400	58.41257	457.55362	1312.05786	144.23906	455.64795	1260.25208	75.75352	472.50952	1172.31982	
442	4.410	58.46374	457.72855	1312.12939	144.25998	455.73813	1260.29578	75.84552	472.13821	1172.38892	
443	4.420	58.52756	457.92978	1312.19177	144.27748	455.87653	1260.32751	75.93129	471.78134	1172.44226	
444	4.430	58.61115	458.12717	1312.24707	144.29376	456.06464	1260.34912	75.99812	471.47131	1172.48303	
445	4.440	58.71537	458.29510	1312.29663	144.31183	456.29666	1260.36292	76.04165	471.23273	1172.51904	
446	4.450	58.83587	458.41589	1312.34082	144.33549	456.55655	1260.37134	76.06416	471.07751	1172.55981	
447	4.460	58.96630	458.48276	1312.38208	144.36879	456.82004	1260.38013	76.07088	471.00378	1172.61438	
448	4.470	59.09841	458.50021	1312.42542	144.41441	457.06195	1260.39893	76.06741	470.99792	1172.68970	
449	4.480	59.21985	458.48181	1312.47742	144.47079	457.26300	1260.44067	76.05838	471.03821	1172.78760	
450	4.490	59.31471	458.44641	1312.54468	144.53075	457.41287	1260.51599	76.04700	471.09799	1172.90271	
451	4.500	59.36797	458.41492	1312.63110	144.58412	457.51062	1260.63062	76.03604	471.15048	1173.02344	
452	4.510	59.37089	458.40744	1312.73767	144.62323	457.56467	1260.78381	76.02873	471.17450	1173.13708	
453	4.520	59.32465	458.43942	1312.86182	144.64651	457.59152	1260.96777	76.02580	471.15881	1173.23535	
454	4.530	59.24129	458.51718	1312.99817	144.65877	457.61295	1261.16956	76.02264	471.10217	1173.31677	
455	4.540	59.14094	458.63730	1313.14001	144.66890	457.65277	1261.37427	76.01116	471.01160	1173.38660	
456	4.550	59.04587	458.78992	1313.28101	144.68657	457.73248	1261.56702	75.98335	470.90012	1173.45276	
457	4.560	58.97365	458.96063	1313.41541	144.71857	457.86484	1261.73486	75.93452	470.78525	1173.52209	
458	4.570	58.93243	459.13123	1313.53809	144.76636	458.04785	1261.86841	75.86691	470.68616	1173.59875	
459	4.580	58.92065	459.28333	1313.64587	144.82477	458.26263	1261.96362	75.79108	470.61813	1173.68347	
460	4.590	58.93067	459.40378	1313.73999	144.88283	458.47894	1262.02344	75.72241	470.58643	1173.77490	
461	4.600	58.95351	459.48788	1313.82520	144.92914	458.66641	1262.05750	75.67453	470.58389	1173.87012	
462	4.610	58.98152	459.54004	1313.90723	144.95818	458.80383	1262.08057	75.65491	470.59341	1173.96338	
463	4.620	59.00794	459.57227	1313.98987	144.97047	458.88126	1262.10962	75.66467	470.59308	1174.04810	
464	4.630	59.02558	459.60034	1314.07410	144.96738	458.89813	1262.16162	75.70088	470.56305	1174.11902	
465	4.640	59.02715	459.63889	1314.16089	144.94809	458.86044	1262.25110	75.75848	470.49203	1174.17676	
466	4.650	59.00689	459.69724	1314.25293	144.91118	458.77820	1262.38940	75.83017	470.38046	1174.22668	
467	4.660	58.96282	459.77765	1314.35474	144.85742	458.66415	1262.58081	75.90725	470.23801	1174.27661	
468	4.670	58.89845	459.87665	1314.47070	144.79213	458.53360	1262.82031	75.98215	470.07715	1174.33423	
469	4.680	58.82135	459.98663	1314.60339	144.72539	458.40256	1263.09265	76.05006	469.90945	1174.40576	
470	4.690	58.73978	460.09543	1314.75269	144.66901	458.28409	1263.37939	76.10811	469.74524	1174.49536	
471	4.700	58.66146	460.18747	1314.91553	144.63124	458.18506	1263.66455	76.15440	469.59332	1174.60364	
472	4.710	58.59472	460.24783	1315.08704	144.61331	458.10599	1263.93518	76.18785	469.46021	1174.72815	
473	4.720	58.54912	460.26746	1315.26074	144.61011	458.04239	1264.17847	76.20837	469.34888	1174.86353	
474	4.730	58.53311	460.24609	1315.42932	144.61389	457.98615	1264.38452	76.21727	469.25745	1175.00208	
475	4.740	58.54855	460.19229	1315.58459	144.61754	457.92798	1264.54944	76.21805	469.17786	1175.13599	
476	4.750	58.58713	460.12039	1315.71997	144.61517	457.86105	1264.67578	76.21767	469.09631	1175.26086	
477	4.760	58.63304	460.04718	1315.83191	144.60176	457.78430	1264.77148	76.22736	468.99780	1175.37671	
478	4.770	58.66939	459.98972	1315.92053	144.57504	457.70456	1264.84900	76.25938	468.87167	1175.48657	
479	4.780	58.68310	459.96307	1315.98901	144.53896	457.63550	1264.92212	76.32006	468.71664	1175.59314	
480	4.790	58.66698	459.97687	1316.04163	144.50372	457.59396	1265.00366	76.40500	468.54330	1175.69714	
481	4.800	58.62000	460.03339	1316.08350	144.48117	457.59470	1265.10193	76.50053	468.37271	1175.79614	
482	4.810	58.54697	460.12769	1316.11914	144.48055	457.64709	1265.21753	76.58983	468.23151	1175.88696	
483	4.820	58.45786	460.24878	1316.15283	144.50575	457.75308	1265.34314	76.65785	468.14557	1175.96887	
484	4.830	58.36523	460.38068	1316.18774	144.55263	457.90558	1265.46692	76.69243	468.13638	1176.04456	
485	4.840	58.28000	460.50470	1316.22498	144.60916	458.08939	1265.57788	76.68398	468.21869	1176.11755	
486	4.850	58.20983	460.60507	1316.26306	144.66118	458.28384	1265.66638	76.62626	468.39749	1176.18958	
487	4.860	58.16038	460.67441	1316.29956	144.69980	458.46741	1265.72546	76.51797	468.66354	1176.25903	
488	4.870	58.13551	460.71509	1316.33105	144.72440	458.62411	1265.75171	76.36630	468.98877	1176.32068	
489	4.880	58.13446	460.73642	1316.35437	144.73982	458.74786	1265.74561	76.18996	469.32620	1176.36719	
490	4.890	58.15057	460.75116	1316.36670	144.75188	458.84171	1265.71094	76.01445	469.62225	1176.39038	
491	4.900	58.17457	460.77161	1316.36523	144.76410	458.91452	1265.65332	75.86089	469.83777	1176.38416	
492	4.910	58.19980	460.80484	1316.34888	144.77649	458.97699	1265.57996	75.73824	469.96091	1176.34753	
493	4.920	58.22398	460.85022	1316.31848	144.78630	459.03778	1265.49719	75.64318	470.00513	1176.28564	
494	4.930	58.24742	460.90033	1316.27686	144.79063	459.10147	1265.41040	75.56577	469.99921	1176.20740	
495	4.940	58.27060	460.94528	1316.22754	144.78976	459.16891	1265.32288	75.49614	469.97580	1176.12158	
496	4.950	58.29321	460.97806	1316.17517	144.78752	459.23889	1265.23645	75.42750	469.96262	1176.03406	
497	4.960	58.31451	460.99762	1316.12451	144.78809	459.30975	1265.15100	75.35622	469.97736	1175.94812	
498	4.970	58.33423	461.00732	1316.07922	144.79376	459.37991	1265.06653	75.28188	470.02563	1175.86609	
499	4.980	58.35282	461.01114	1316.04004	144.80479	459.44769	1264.98584	75.20750	470.10095	1175.78931	
500	4.990	58.37053	461.01169	1316.00525	144.81888	459.51160	1264.91296	75.13959	470.18707	1175.71924	
501	5.000	58.38638	461.00974	1315.97339	144.83151	459.56982	1264.85217	75.08714	470.26382	1175.65784	
502	5.010	58.39757	461.00427	1315.94421	144.83838	459.61948	1264.80603	75.05782	470.31421	1175.60840	
503	5.020	58.40001	460.99316	1315.92004	144.83740	459.65591	1264.77625	75.05296	470.33005	1175.57397	
504	5.030	58.39006	460.97382	1315.90405	144.82852	459.67288	1264.76428	75.06575	470.31314	1175.55762	
505	5.040	58.36631	460.94351	1315.89868	144.81082	459.66360	1264.77026	75.08496	470.27258	1175.56018	
506	5.050	58.33094	460.89993	1315.90332	144.77982	459.62238	1264.79224	75.10123	470.22012	1175.58093	
507	5.060	58.29000	460.84235	1315.91528	144.72864	459.54526	1264.82593	75.11121	470.16577	1175.61682	
508	5.070	58.25233	460.77197	1315.93176	144.65256	459.42950	1264.86499	75.11787	470.11536	1175.66406	
509	5.080	58.22647	460.69128	1315.95044	144.55307	459.27362	1264.90320	75.12740	470.06915	1175.71790	
510	5.090	58.21758	460.60321	1315.97095	144.43724	459.07840	1264.93591	75.14497	470.02209	1175.77307	
511	5.100	58.22605	460.51205	1315.99304	144.31398	458.85068	1264.96106	75.17369	469.96378	1175.82495	
512	5.110	58.24769	460.42422	1316.01648	144.19130	458.60690	1264.97998	75.21610	469.87811	1175.87109	
513	5.120	58.27484	460.34583	1316.04004	144.07585	458.36966	1264.99670	75.27485	469.74478	1175.91125	
514	5.130	58.29833	460.27826	1316.06299	143.97246	458.15759	1265.01733	75.35171	469.54330	1175.94556	
515	5.140	58.30944	460.21716	1316.08496	143.88438	457.97910	1265.04871	75.44700	469.25797	1175.97412	
516	5.150	58.30083	460.15378	1316.10571	143.81424	457.83301	1265.09521	75.55857	468.88373	1175.99707	
